<?xml version="1.0" encoding="UTF-8" standalone="no"?>
<!-- Created with Inkscape (http://www.inkscape.org/) -->

<svg
   xmlns:dc="http://purl.org/dc/elements/1.1/"
   xmlns:cc="http://creativecommons.org/ns#"
   xmlns:rdf="http://www.w3.org/1999/02/22-rdf-syntax-ns#"
   xmlns:svg="http://www.w3.org/2000/svg"
   xmlns="http://www.w3.org/2000/svg"
   xmlns:sodipodi="http://sodipodi.sourceforge.net/DTD/sodipodi-0.dtd"
   xmlns:inkscape="http://www.inkscape.org/namespaces/inkscape"
   width="48"
   height="48"
   viewBox="0 0 48 48"
   id="svg3338"
   version="1.1"
   inkscape:version="0.91 r13725"
   sodipodi:docname="tele-icon.svg">
  <defs
     id="defs3340" />
  <sodipodi:namedview
     id="base"
     pagecolor="#ffffff"
     bordercolor="#666666"
     borderopacity="1.0"
     inkscape:pageopacity="0.0"
     inkscape:pageshadow="2"
     inkscape:zoom="14.604167"
     inkscape:cx="3.5785283"
     inkscape:cy="24"
     inkscape:document-units="px"
     inkscape:current-layer="layer1"
     showgrid="false"
     units="px" />
  <metadata
     id="metadata3343">
    <rdf:RDF>
      <cc:Work
         rdf:about="">
        <dc:format>image/svg+xml</dc:format>
        <dc:type
           rdf:resource="http://purl.org/dc/dcmitype/StillImage" />
        <dc:title />
      </cc:Work>
    </rdf:RDF>
  </metadata>
  <g
     inkscape:label="Layer 1"
     inkscape:groupmode="layer"
     id="layer1"
     transform="translate(0,-1004.3622)">
    <path
       style="opacity:1;fill:none;fill-opacity:1;fill-rule:nonzero;stroke:#000000;stroke-width:1.7;stroke-linecap:round;stroke-linejoin:round;stroke-miterlimit:4;stroke-dasharray:none;stroke-dashoffset:0;stroke-opacity:1"
       d="M 5.8431787,1015.9263 42.256797,1015.9263 C 43.872225,1015.9263 45.172732,1017.2268 45.172732,1018.8422 L 45.172732,1043.1047 C 45.172732,1044.7201 43.872225,1046.0207 42.256797,1046.0207 L 5.8431787,1046.0207 C 4.2277511,1046.0207 2.9272444,1044.7201 2.9272444,1043.1047 L 2.9272444,1018.8422 C 2.9272444,1017.2268 4.2277511,1015.9263 5.8431787,1015.9263 Z"
       id="rect3361" />
    <path
       style="opacity:1;fill:none;fill-opacity:1;fill-rule:nonzero;stroke:#000000;stroke-width:1.7;stroke-linecap:round;stroke-linejoin:round;stroke-miterlimit:4;stroke-dasharray:none;stroke-dashoffset:0;stroke-opacity:1"
       d="M 8.2907975,1019.3085 34.574826,1019.3085 C 36.379503,1019.3085 37.832365,1020.7613 37.832365,1022.566 L 37.832365,1039.416 C 37.832365,1041.2207 36.379503,1042.6735 34.574826,1042.6735 L 8.2907975,1042.6735 C 6.4861208,1042.6735 5.0332584,1041.2207 5.0332584,1039.416 L 5.0332584,1022.566 C 5.0332584,1020.7613 6.4861208,1019.3085 8.2907975,1019.3085 Z"
       id="rect3361-9" />
    <path
       style="color:#000000;clip-rule:nonzero;display:inline;overflow:visible;visibility:visible;opacity:1;isolation:auto;mix-blend-mode:normal;color-interpolation:sRGB;color-interpolation-filters:linearRGB;solid-color:#000000;solid-opacity:1;fill:none;fill-opacity:1;fill-rule:nonzero;stroke:#000000;stroke-width:1.7;stroke-linecap:round;stroke-linejoin:round;stroke-miterlimit:4;stroke-dasharray:none;stroke-dashoffset:0;stroke-opacity:1;color-rendering:auto;image-rendering:auto;shape-rendering:auto;text-rendering:auto;enable-background:accumulate"
       d="M 43.035646,1021.6658 A 1.343832,1.343832 0 0 1 41.691814,1023.0096 1.343832,1.343832 0 0 1 40.347982,1021.6658 1.343832,1.343832 0 0 1 41.691814,1020.3219 1.343832,1.343832 0 0 1 43.035646,1021.6658 Z"
       id="path3391" />
    <path
       style="color:#000000;clip-rule:nonzero;display:inline;overflow:visible;visibility:visible;opacity:1;isolation:auto;mix-blend-mode:normal;color-interpolation:sRGB;color-interpolation-filters:linearRGB;solid-color:#000000;solid-opacity:1;fill:none;fill-opacity:1;fill-rule:nonzero;stroke:#000000;stroke-width:1.7;stroke-linecap:round;stroke-linejoin:round;stroke-miterlimit:4;stroke-dasharray:none;stroke-dashoffset:0;stroke-opacity:1;color-rendering:auto;image-rendering:auto;shape-rendering:auto;text-rendering:auto;enable-background:accumulate"
       d="M 43.099638,1026.3374 A 1.343832,1.343832 0 0 1 41.755806,1027.6812 1.343832,1.343832 0 0 1 40.411974,1026.3374 1.343832,1.343832 0 0 1 41.755806,1024.9936 1.343832,1.343832 0 0 1 43.099638,1026.3374 Z"
       id="path3391-6" />
    <path
       style="color:#000000;clip-rule:nonzero;display:inline;overflow:visible;visibility:visible;opacity:1;isolation:auto;mix-blend-mode:normal;color-interpolation:sRGB;color-interpolation-filters:linearRGB;solid-color:#000000;solid-opacity:1;fill:none;fill-opacity:1;fill-rule:nonzero;stroke:#000000;stroke-width:1.7;stroke-linecap:round;stroke-linejoin:round;stroke-miterlimit:4;stroke-dasharray:none;stroke-dashoffset:0;stroke-opacity:1;color-rendering:auto;image-rendering:auto;shape-rendering:auto;text-rendering:auto;enable-background:accumulate"
       d="M 43.035646,1031.0087 A 1.343832,1.343832 0 0 1 41.691814,1032.3525 1.343832,1.343832 0 0 1 40.347982,1031.0087 1.343832,1.343832 0 0 1 41.691814,1029.6648 1.343832,1.343832 0 0 1 43.035646,1031.0087 Z"
       id="path3391-8" />
    <path
       style="fill:none;fill-rule:evenodd;stroke:#000000;stroke-width:1.7;stroke-linecap:butt;stroke-linejoin:miter;stroke-opacity:1;stroke-miterlimit:4;stroke-dasharray:none"
       d="M 13.535334,1015.9067 C 17.751831,1011.6903 28.136121,1012.0778 31.965031,1015.9067"
       id="path4216"
       inkscape:connector-curvature="0"
       sodipodi:nodetypes="cc" />
    <path
       style="fill:none;fill-rule:evenodd;stroke:#000000;stroke-width:1.7;stroke-linecap:round;stroke-linejoin:miter;stroke-opacity:1;stroke-miterlimit:4;stroke-dasharray:none"
       d="M 27.500454,1013.3322 C 32.947318,1008.5733 33.406001,1008.1147 33.406001,1008.1147"
       id="path4218"
       inkscape:connector-curvature="0"
       sodipodi:nodetypes="cc" />
    <path
       style="fill:none;fill-rule:evenodd;stroke:#000000;stroke-width:1.7;stroke-linecap:round;stroke-linejoin:miter;stroke-opacity:1;stroke-miterlimit:4;stroke-dasharray:none"
       d="M 17.70382,1013.5882 C 12.256956,1008.8294 11.798274,1008.3707 11.798274,1008.3707"
       id="path4218-6"
       inkscape:connector-curvature="0"
       sodipodi:nodetypes="cc" />
  </g>
</svg>
